<?xml version="1.0" encoding="utf-8"?>
<svg version="1.1" xmlns:xlink="http://www.w3.org/1999/xlink" width="18px" height="12px" xmlns="http://www.w3.org/2000/svg">
  <g transform="matrix(1 0 0 1 -617 -132 )">
    <path d="M 8.39461883408072 9  L 8.95964125560538 9  L 10.1300448430493 8.01136363636364  L 8.59641255605381 6.71590909090909  L 7.42600896860987 7.70454545454546  L 7.42600896860987 8.18181818181818  L 8.39461883408072 8.18181818181818  L 8.39461883408072 9  Z M 13.3890134529148 3.14488636363636  C 13.5033632286996 3.04829545454545  13.5067264573991 2.95454545454545  13.3991031390135 2.86363636363636  C 13.2914798206278 2.77272727272727  13.1804932735426 2.77556818181818  13.0661434977578 2.87215909090909  L 9.5347533632287 5.85511363636364  C 9.42040358744395 5.95170454545455  9.41704035874439 6.04545454545454  9.52466367713004 6.13636363636364  C 9.6322869955157 6.22727272727273  9.7432735426009 6.22443181818182  9.85762331838565 6.12784090909091  L 13.3890134529148 3.14488636363636  Z M 14.0044843049327 7.67897727272727  C 14.1390134529148 7.72443181818182  14.2062780269058 7.80681818181818  14.2062780269058 7.92613636363636  L 14.2062780269058 9.54545454545455  C 14.2062780269058 10.2215909090909  13.9220852017937 10.7997159090909  13.3536995515695 11.2798295454545  C 12.7853139013453 11.7599431818182  12.1008968609865 12  11.3004484304933 12  L 2.90582959641256 12  C 2.10538116591928 12  1.42096412556054 11.7599431818182  0.852578475336323 11.2798295454545  C 0.284192825112108 10.7997159090909  0 10.2215909090909  0 9.54545454545455  L 0 2.45454545454546  C 0 1.77840909090909  0.284192825112108 1.20028409090909  0.852578475336323 0.720170454545455  C 1.42096412556054 0.240056818181817  2.10538116591928 0  2.90582959641256 0  L 11.3004484304933 0  C 11.7242152466368 0  12.1177130044843 0.0710227272727266  12.4809417040359 0.213068181818181  C 12.5818385650224 0.252840909090908  12.6423766816143 0.318181818181818  12.6625560538117 0.409090909090909  C 12.682735426009 0.505681818181818  12.652466367713 0.588068181818181  12.5717488789238 0.65625  L 12.0773542600897 1.07386363636364  C 11.9831838565022 1.15340909090909  11.8755605381166 1.17613636363636  11.7544843049327 1.14204545454546  C 11.5997757847534 1.10795454545454  11.4484304932735 1.09090909090909  11.3004484304933 1.09090909090909  L 2.90582959641256 1.09090909090909  C 2.46188340807175 1.09090909090909  2.08183856502242 1.22443181818182  1.76569506726457 1.49147727272727  C 1.44955156950673 1.75852272727273  1.2914798206278 2.07954545454546  1.2914798206278 2.45454545454546  L 1.2914798206278 9.54545454545455  C 1.2914798206278 9.92045454545455  1.44955156950673 10.2414772727273  1.76569506726457 10.5085227272727  C 2.08183856502242 10.7755681818182  2.46188340807175 10.9090909090909  2.90582959641256 10.9090909090909  L 11.3004484304933 10.9090909090909  C 11.7443946188341 10.9090909090909  12.1244394618834 10.7755681818182  12.4405829596413 10.5085227272727  C 12.7567264573991 10.2414772727273  12.914798206278 9.92045454545455  12.914798206278 9.54545454545455  L 12.914798206278 8.47159090909091  C 12.914798206278 8.39772727272727  12.945067264574 8.33522727272727  13.0056053811659 8.28409090909091  L 13.6513452914798 7.73863636363636  C 13.7522421524664 7.65340909090909  13.8699551569507 7.63352272727273  14.0044843049327 7.67897727272727  Z M 6.45739910313901 7.36363636363636  L 13.237668161435 1.63636363636364  L 16.1434977578475 4.09090909090909  L 9.36322869955157 9.81818181818182  L 6.45739910313901 9.81818181818182  L 6.45739910313901 7.36363636363636  Z M 18 2.18181818181818  C 18 2.40909090909091  17.9058295964126 2.60227272727273  17.7174887892377 2.76136363636364  L 16.7892376681614 3.54545454545455  L 13.8834080717489 1.09090909090909  L 14.8116591928251 0.306818181818181  C 15 0.147727272727272  15.2286995515695 0.0681818181818188  15.4977578475336 0.0681818181818188  C 15.7668161434978 0.0681818181818188  15.9955156950673 0.147727272727272  16.1838565022422 0.306818181818181  L 17.7174887892377 1.60227272727273  C 17.9058295964126 1.76136363636363  18 1.95454545454545  18 2.18181818181818  Z " fill-rule="nonzero" fill="#70b603" stroke="none" transform="matrix(1 0 0 1 617 132 )" />
  </g>
</svg>