<?xml version="1.0" encoding="utf-8"?>
<svg version="1.1" xmlns:xlink="http://www.w3.org/1999/xlink" width="90px" height="90px" xmlns="http://www.w3.org/2000/svg">
  <g transform="matrix(1 0 0 1 -268 -837 )">
    <path d="M 268 837  L 358 837  L 358 927  L 268 927  L 268 837  " fill-rule="nonzero" fill="#cccccc" stroke="none" />
    <path d="M 274 843  L 352 843  L 352 921  L 274 921  L 274 843  " fill-rule="nonzero" fill="#ffffff" stroke="none" />
    <path d="M 321.55 864  C 317.77 864  314.8 861.03  314.8 857.25  C 314.8 853.47  317.77 850.5  321.55 850.5  C 325.33 850.5  328.3 853.47  328.3 857.25  C 328.3 861.03  325.33 864  321.55 864  " fill-rule="nonzero" fill="#cccccc" stroke="none" />
    <path d="M 277 919  L 277 878.85  L 295.25 860.6  L 320.8 875.2  L 335.4 871.55  L 350 875.2  L 350 919  L 277 919  " fill-rule="nonzero" fill="#169bd5" stroke="none" />
  </g>
</svg>