<?xml version="1.0" encoding="utf-8"?>
<svg version="1.1" xmlns:xlink="http://www.w3.org/1999/xlink" width="90px" height="90px" xmlns="http://www.w3.org/2000/svg">
  <g transform="matrix(1 0 0 1 -240 -777 )">
    <path d="M 240 777  L 330 777  L 330 867  L 240 867  L 240 777  " fill-rule="nonzero" fill="#cccccc" stroke="none" />
    <path d="M 246 783  L 324 783  L 324 861  L 246 861  L 246 783  " fill-rule="nonzero" fill="#ffffff" stroke="none" />
    <path d="M 293.55 804  C 289.77 804  286.8 801.03  286.8 797.25  C 286.8 793.47  289.77 790.5  293.55 790.5  C 297.33 790.5  300.3 793.47  300.3 797.25  C 300.3 801.03  297.33 804  293.55 804  " fill-rule="nonzero" fill="#cccccc" stroke="none" />
    <path d="M 249 859  L 249 818.85  L 267.25 800.6  L 292.8 815.2  L 307.4 811.55  L 322 815.2  L 322 859  L 249 859  " fill-rule="nonzero" fill="#169bd5" stroke="none" />
  </g>
</svg>